<svg width="22" height="26" viewBox="0 0 22 26" fill="none" xmlns="http://www.w3.org/2000/svg">
<g clip-path="url(#clip0_97_2667)">
<path d="M21.2891 8.3125C21.6113 8.3125 21.875 8.04883 21.875 7.72656V5.77344C21.875 5.45117 21.6113 5.1875 21.2891 5.1875H20.3125V2.84375C20.3125 1.5498 19.2627 0.5 17.9688 0.5H2.34375C1.0498 0.5 0 1.5498 0 2.84375V23.1562C0 24.4502 1.0498 25.5 2.34375 25.5H17.9688C19.2627 25.5 20.3125 24.4502 20.3125 23.1562V20.8125H21.2891C21.6113 20.8125 21.875 20.5488 21.875 20.2266V18.2734C21.875 17.9512 21.6113 17.6875 21.2891 17.6875H20.3125V14.5625H21.2891C21.6113 14.5625 21.875 14.2988 21.875 13.9766V12.0234C21.875 11.7012 21.6113 11.4375 21.2891 11.4375H20.3125V8.3125H21.2891ZM10.1562 6.75C11.8799 6.75 13.2812 8.15137 13.2812 9.875C13.2812 11.5986 11.8799 13 10.1562 13C8.43262 13 7.03125 11.5986 7.03125 9.875C7.03125 8.15137 8.43262 6.75 10.1562 6.75ZM15.625 18.3125C15.625 18.8301 15.1367 19.25 14.5313 19.25H5.78125C5.17578 19.25 4.6875 18.8301 4.6875 18.3125V17.375C4.6875 15.8223 6.15723 14.5625 7.96875 14.5625H8.21289C8.81348 14.8115 9.46777 14.9531 10.1562 14.9531C10.8447 14.9531 11.5039 14.8115 12.0996 14.5625H12.3438C14.1553 14.5625 15.625 15.8223 15.625 17.375V18.3125Z" fill="white"/>
</g>
<defs>
<clipPath id="clip0_97_2667">
<rect width="21.875" height="25" fill="white" transform="translate(0 0.5)"/>
</clipPath>
</defs>
</svg>
