<svg width="25" height="26" viewBox="0 0 25 26" fill="none" xmlns="http://www.w3.org/2000/svg">
<g clip-path="url(#clip0_97_2345)">
<path d="M21.0938 2.0625H18.3594C18.1522 2.0625 17.9535 2.14481 17.8069 2.29132C17.6604 2.43784 17.5781 2.63655 17.5781 2.84375V5.1875H15.2344V2.84375C15.2344 2.63655 15.1521 2.43784 15.0056 2.29132C14.859 2.14481 14.6603 2.0625 14.4531 2.0625H10.5469C10.3397 2.0625 10.141 2.14481 9.99445 2.29132C9.84794 2.43784 9.76562 2.63655 9.76562 2.84375V5.1875H7.42676V2.84375C7.42676 2.63655 7.34445 2.43784 7.19794 2.29132C7.05142 2.14481 6.85271 2.0625 6.64551 2.0625H3.90625C3.69905 2.0625 3.50034 2.14481 3.35382 2.29132C3.20731 2.43784 3.125 2.63655 3.125 2.84375V11.4375L6.25 13C6.25 15.3599 6.1748 17.6387 5.60498 20.8125H19.395C18.8252 17.6387 18.75 15.3301 18.75 13L21.875 11.4375V2.84375C21.875 2.63655 21.7927 2.43784 21.6462 2.29132C21.4997 2.14481 21.301 2.0625 21.0938 2.0625ZM14.0625 16.125H10.9375V13C10.9375 12.5856 11.1021 12.1882 11.3951 11.8951C11.6882 11.6021 12.0856 11.4375 12.5 11.4375C12.9144 11.4375 13.3118 11.6021 13.6049 11.8951C13.8979 12.1882 14.0625 12.5856 14.0625 13V16.125ZM21.0938 22.375H3.90625C3.69905 22.375 3.50034 22.4573 3.35382 22.6038C3.20731 22.7503 3.125 22.949 3.125 23.1562V24.7188C3.125 24.926 3.20731 25.1247 3.35382 25.2712C3.50034 25.4177 3.69905 25.5 3.90625 25.5H21.0938C21.301 25.5 21.4997 25.4177 21.6462 25.2712C21.7927 25.1247 21.875 24.926 21.875 24.7188V23.1562C21.875 22.949 21.7927 22.7503 21.6462 22.6038C21.4997 22.4573 21.301 22.375 21.0938 22.375Z" fill="white"/>
</g>
<defs>
<clipPath id="clip0_97_2345">
<rect width="25" height="25" fill="white" transform="translate(0 0.5)"/>
</clipPath>
</defs>
</svg>
