<svg width="26" height="26" viewBox="0 0 26 26" fill="none" xmlns="http://www.w3.org/2000/svg">
<g clip-path="url(#clip0_97_2642)">
<path d="M24.6739 15.9151L22.5938 14.7139C22.8038 13.5811 22.8038 12.419 22.5938 11.2861L24.6739 10.085C24.9131 9.94826 25.0206 9.66505 24.9424 9.40138C24.4004 7.6631 23.4776 6.09084 22.2715 4.78224C22.086 4.58205 21.7833 4.53322 21.5489 4.66994L19.4688 5.87111C18.5948 5.11916 17.5889 4.5381 16.5001 4.15724V1.75978C16.5001 1.48634 16.3096 1.24709 16.0411 1.18849C14.2491 0.788101 12.4131 0.807632 10.709 1.18849C10.4405 1.24709 10.2501 1.48634 10.2501 1.75978V4.16212C9.16607 4.54787 8.16021 5.12892 7.2813 5.87599L5.20611 4.67482C4.96685 4.5381 4.669 4.58205 4.48345 4.78712C3.2774 6.09084 2.35455 7.6631 1.81255 9.40627C1.72955 9.66994 1.84185 9.95314 2.08111 10.0899L4.16119 11.291C3.95123 12.4238 3.95123 13.586 4.16119 14.7188L2.08111 15.9199C1.84185 16.0567 1.73443 16.3399 1.81255 16.6035C2.35455 18.3418 3.2774 19.9141 4.48345 21.2227C4.669 21.4229 4.97173 21.4717 5.20611 21.335L7.28619 20.1338C8.16021 20.8858 9.16607 21.4668 10.2549 21.8477V24.25C10.2549 24.5235 10.4454 24.7627 10.7139 24.8213C12.5059 25.2217 14.3419 25.2022 16.046 24.8213C16.3145 24.7627 16.5049 24.5235 16.5049 24.25V21.8477C17.5889 21.4619 18.5948 20.8809 19.4737 20.1338L21.5538 21.335C21.793 21.4717 22.0909 21.4277 22.2764 21.2227C23.4825 19.919 24.4053 18.3467 24.9473 16.6035C25.0206 16.335 24.9131 16.0518 24.6739 15.9151ZM13.3751 16.9063C11.2217 16.9063 9.4688 15.1533 9.4688 13C9.4688 10.8467 11.2217 9.09377 13.3751 9.09377C15.5284 9.09377 17.2813 10.8467 17.2813 13C17.2813 15.1533 15.5284 16.9063 13.3751 16.9063Z" fill="white"/>
</g>
<defs>
<clipPath id="clip0_97_2642">
<rect width="25" height="25" fill="white" transform="translate(0.875 0.5)"/>
</clipPath>
</defs>
</svg>
