<svg width="19" height="17" viewBox="0 0 19 17" fill="none" xmlns="http://www.w3.org/2000/svg">
<g clip-path="url(#clip0_132_4635)">
<path d="M9.33331 1.0625C4.36222 1.0625 0.333313 4.15371 0.333313 7.96875C0.333313 9.61562 1.08566 11.123 2.33722 12.3084C1.89777 13.9818 0.428235 15.4727 0.410657 15.4893C0.333313 15.5656 0.312219 15.6785 0.357922 15.7781C0.403625 15.8777 0.502063 15.9375 0.614563 15.9375C2.94542 15.9375 4.69269 14.8816 5.55753 14.2309C6.70714 14.6393 7.98331 14.875 9.33331 14.875C14.3044 14.875 18.3333 11.7838 18.3333 7.96875C18.3333 4.15371 14.3044 1.0625 9.33331 1.0625Z" fill="white"/>
</g>
<defs>
<clipPath id="clip0_132_4635">
<rect width="18" height="17" fill="white" transform="translate(0.333313)"/>
</clipPath>
</defs>
</svg>
