<svg width="26" height="25" viewBox="0 0 26 25" fill="none" xmlns="http://www.w3.org/2000/svg">
<g clip-path="url(#clip0_97_2760)">
<path d="M9.81769 12.5C9.81769 10.5566 11.39 8.98437 13.3333 8.98437C15.2767 8.98437 16.8489 10.5566 16.8489 12.5C16.8489 14.4434 15.2767 16.0156 13.3333 16.0156C11.39 16.0156 9.81769 14.4434 9.81769 12.5ZM4.73956 16.0156C6.68292 16.0156 8.25519 14.4434 8.25519 12.5C8.25519 10.5566 6.68292 8.98437 4.73956 8.98437C2.7962 8.98437 1.22394 10.5566 1.22394 12.5C1.22394 14.4434 2.7962 16.0156 4.73956 16.0156ZM21.9271 16.0156C23.8704 16.0156 25.4427 14.4434 25.4427 12.5C25.4427 10.5566 23.8704 8.98437 21.9271 8.98437C19.9837 8.98437 18.4114 10.5566 18.4114 12.5C18.4114 14.4434 19.9837 16.0156 21.9271 16.0156Z" fill="white"/>
</g>
<defs>
<clipPath id="clip0_97_2760">
<rect width="25" height="25" fill="white" transform="translate(0.833313 25) rotate(-90)"/>
</clipPath>
</defs>
</svg>
