<svg width="45" height="66" viewBox="0 0 45 66" fill="none" xmlns="http://www.w3.org/2000/svg">
    <g clip-path="url(#qcalnvvhla)">
        <mask id="ta62e2v86b" style="mask-type:luminance" maskUnits="userSpaceOnUse" x="0" y="0" width="45" height="66">
            <path d="M44.896 43.395c-.752 8.868-5.48 16.834-12.5 20.726-.458.256-.927.493-1.403.714-8.7-2.674-11.019-13.797-11.073-26.015C12.119 47.966 7.443 58.84 16.478 66a20.688 20.688 0 0 1-4.567-1.879C3.869 59.661-.858 50.82.13 41.715c.542-4.994 2.899-9.228 5.82-13.162 3.35-4.505 7.594-8.35 10.484-13.187 2.78-4.65 3.17-10.298 2.647-15.366 1.1 1.235 3.904 4.3 4.778 5.27l.086.094c5.378 5.958 11.494 14.709 8.816 23.167-.77 2.434-3.177 4.726-2.488 7.46a3.538 3.538 0 0 0 3.413 2.668c3.275 0 4.407-4.054 4.908-6.59.498-2.544.57-7.103-.108-9.868 4.257 6.179 7.102 13.017 6.41 21.194z" fill="#fff"/>
        </mask>
        <g mask="url(#ta62e2v86b)">
            <mask id="kqjcfflpnc" style="mask-type:luminance" maskUnits="userSpaceOnUse" x="0" y="0" width="45" height="66">
                <path d="M44.896 43.395c-.752 8.868-5.48 16.834-12.5 20.726-.458.256-.927.493-1.403.714-8.7-2.674-11.019-13.797-11.073-26.015C12.119 47.966 7.443 58.84 16.478 66a20.688 20.688 0 0 1-4.567-1.879C3.869 59.661-.858 50.82.13 41.715c.542-4.994 2.899-9.228 5.82-13.162 3.35-4.505 7.594-8.35 10.484-13.187 2.78-4.65 3.17-10.298 2.647-15.366 1.1 1.235 3.904 4.3 4.778 5.27l.086.094c5.378 5.958 11.494 14.709 8.816 23.167-.77 2.434-3.177 4.726-2.488 7.46a3.538 3.538 0 0 0 3.413 2.668c3.275 0 4.407-4.054 4.908-6.59.498-2.544.57-7.103-.108-9.868 4.257 6.179 7.102 13.017 6.41 21.194z" fill="#fff"/>
            </mask>
            <g mask="url(#kqjcfflpnc)">
                <path d="m-34.195 33 56.56 55.989L78.928 33 22.366-22.988-34.195 33z" fill="#fff"/>
            </g>
        </g>
    </g>
    <defs>
        <clipPath id="qcalnvvhla">
            <path fill="#fff" d="M0 0h45v66H0z"/>
        </clipPath>
    </defs>
</svg>
