<svg width="26" height="25" viewBox="0 0 26 25" fill="none" xmlns="http://www.w3.org/2000/svg">
<path d="M13.0049 6.88477C9.89941 6.88477 7.39453 9.38965 7.39453 12.4951C7.39453 15.6006 9.89941 18.1055 13.0049 18.1055C16.1104 18.1055 18.6152 15.6006 18.6152 12.4951C18.6152 9.38965 16.1104 6.88477 13.0049 6.88477ZM13.0049 16.1426C10.998 16.1426 9.35742 14.5068 9.35742 12.4951C9.35742 10.4834 10.9932 8.84766 13.0049 8.84766C15.0166 8.84766 16.6523 10.4834 16.6523 12.4951C16.6523 14.5068 15.0117 16.1426 13.0049 16.1426ZM20.1533 6.65527C20.1533 7.38281 19.5674 7.96387 18.8447 7.96387C18.1172 7.96387 17.5361 7.37793 17.5361 6.65527C17.5361 5.93262 18.1221 5.34668 18.8447 5.34668C19.5674 5.34668 20.1533 5.93262 20.1533 6.65527ZM23.8691 7.9834C23.7861 6.23047 23.3857 4.67773 22.1016 3.39844C20.8223 2.11914 19.2695 1.71875 17.5166 1.63086C15.71 1.52832 10.2949 1.52832 8.48828 1.63086C6.74023 1.71387 5.1875 2.11426 3.90332 3.39355C2.61914 4.67285 2.22363 6.22559 2.13574 7.97852C2.0332 9.78516 2.0332 15.2002 2.13574 17.0068C2.21875 18.7598 2.61914 20.3125 3.90332 21.5918C5.1875 22.8711 6.73535 23.2715 8.48828 23.3594C10.2949 23.4619 15.71 23.4619 17.5166 23.3594C19.2695 23.2764 20.8223 22.876 22.1016 21.5918C23.3809 20.3125 23.7813 18.7598 23.8691 17.0068C23.9717 15.2002 23.9717 9.79004 23.8691 7.9834ZM21.5352 18.9453C21.1543 19.9023 20.417 20.6396 19.4551 21.0254C18.0146 21.5967 14.5967 21.4648 13.0049 21.4648C11.4131 21.4648 7.99023 21.5918 6.55469 21.0254C5.59766 20.6445 4.86035 19.9072 4.47461 18.9453C3.90332 17.5049 4.03516 14.0869 4.03516 12.4951C4.03516 10.9033 3.9082 7.48047 4.47461 6.04492C4.85547 5.08789 5.59277 4.35059 6.55469 3.96484C7.99512 3.39355 11.4131 3.52539 13.0049 3.52539C14.5967 3.52539 18.0195 3.39844 19.4551 3.96484C20.4121 4.3457 21.1494 5.08301 21.5352 6.04492C22.1064 7.48535 21.9746 10.9033 21.9746 12.4951C21.9746 14.0869 22.1064 17.5098 21.5352 18.9453Z" fill="white"/>
</svg>
