<svg width="26" height="25" viewBox="0 0 26 25" fill="none" xmlns="http://www.w3.org/2000/svg">
<path d="M6.95898 21.875H2.42383V7.27051H6.95898V21.875ZM4.68896 5.27832C3.23877 5.27832 2.0625 4.07715 2.0625 2.62695C2.0625 1.93037 2.33922 1.26232 2.83177 0.769762C3.32433 0.277204 3.99238 0.000488281 4.68896 0.000488281C5.38555 0.000488281 6.0536 0.277204 6.54616 0.769762C7.03871 1.26232 7.31543 1.93037 7.31543 2.62695C7.31543 4.07715 6.13867 5.27832 4.68896 5.27832ZM23.9326 21.875H19.4072V14.7656C19.4072 13.0713 19.373 10.8984 17.0493 10.8984C14.6914 10.8984 14.3301 12.7393 14.3301 14.6436V21.875H9.79981V7.27051H14.1494V9.2627H14.2129C14.8184 8.11523 16.2974 6.9043 18.5039 6.9043C23.0938 6.9043 23.9375 9.92676 23.9375 13.8525V21.875H23.9326Z" fill="white"/>
</svg>
