<svg width="46" height="66" viewBox="0 0 46 66" fill="none" xmlns="http://www.w3.org/2000/svg">
<g clip-path="url(#clip0_97_1965)">
<mask id="mask0_97_1965" style="mask-type:luminance" maskUnits="userSpaceOnUse" x="0" y="0" width="46" height="66">
<path d="M45.3964 43.3945C44.6435 52.2633 39.9166 60.229 32.8969 64.121C32.4378 64.3767 31.9686 64.6138 31.4933 64.8349C22.793 62.161 20.4741 51.0379 20.4199 38.82C12.6187 47.9659 7.9429 58.8396 16.9785 66C15.39 65.561 13.8621 64.9297 12.4115 64.121C4.36767 59.6605 -0.359231 50.82 0.629994 41.715C1.17156 36.7209 3.52882 32.4872 6.45018 28.5533C9.79952 24.0476 14.0442 20.2024 16.9338 15.3656C19.7149 10.7155 20.1039 5.06755 19.5807 0C20.6813 1.23485 23.485 4.30063 24.359 5.26917C24.3873 5.30058 24.4168 5.33292 24.445 5.36433C29.8226 11.3216 35.9391 20.073 33.2605 28.5307C32.4914 30.9653 30.084 33.2572 30.7728 35.9917C31.1618 37.5352 32.5653 38.6592 34.1856 38.6592C37.4613 38.6592 38.5933 34.6054 39.0937 32.0698C39.5918 29.5253 39.6647 24.9665 38.9858 22.201C43.2431 28.3797 46.0883 35.2182 45.3964 43.3945Z" fill="white"/>
</mask>
<g mask="url(#mask0_97_1965)">
<mask id="mask1_97_1965" style="mask-type:luminance" maskUnits="userSpaceOnUse" x="0" y="0" width="46" height="66">
<path d="M45.3964 43.3945C44.6435 52.2633 39.9166 60.229 32.8969 64.121C32.4378 64.3767 31.9686 64.6138 31.4933 64.8349C22.793 62.161 20.4741 51.0379 20.4199 38.82C12.6187 47.9659 7.9429 58.8396 16.9785 66C15.39 65.561 13.8621 64.9297 12.4115 64.121C4.36767 59.6605 -0.359231 50.82 0.629994 41.715C1.17156 36.7209 3.52882 32.4872 6.45018 28.5533C9.79952 24.0476 14.0442 20.2024 16.9338 15.3656C19.7149 10.7155 20.1039 5.06755 19.5807 0C20.6813 1.23485 23.485 4.30063 24.359 5.26917C24.3873 5.30058 24.4168 5.33292 24.445 5.36433C29.8226 11.3216 35.9391 20.073 33.2605 28.5307C32.4914 30.9653 30.084 33.2572 30.7728 35.9917C31.1618 37.5352 32.5653 38.6592 34.1856 38.6592C37.4613 38.6592 38.5933 34.6054 39.0937 32.0698C39.5918 29.5253 39.6647 24.9665 38.9858 22.201C43.2431 28.3797 46.0883 35.2182 45.3964 43.3945Z" fill="white"/>
</mask>
<g mask="url(#mask1_97_1965)">
<path d="M-33.6966 33L22.8644 88.9886L79.4257 33L22.8644 -22.9886L-33.6966 33Z" fill="white"/>
</g>
</g>
</g>
<defs>
<clipPath id="clip0_97_1965">
<rect width="45" height="66" fill="white" transform="translate(0.5)"/>
</clipPath>
</defs>
</svg>
