<svg width="25" height="26" viewBox="0 0 25 26" fill="none" xmlns="http://www.w3.org/2000/svg">
<g clip-path="url(#clip0_97_2528)">
<path d="M10.9375 5.1875L11.7188 3.625L13.2812 2.84375L11.7188 2.0625L10.9375 0.5L10.1562 2.0625L8.59375 2.84375L10.1562 3.625L10.9375 5.1875ZM3.90625 8.3125L5.20801 5.7085L7.8125 4.40625L5.20801 3.104L3.90625 0.5L2.60449 3.104L0 4.40625L2.60449 5.7085L3.90625 8.3125ZM21.0938 14.5625L19.792 17.1665L17.1875 18.4688L19.792 19.771L21.0938 22.375L22.3955 19.771L25 18.4688L22.3955 17.1665L21.0938 14.5625ZM24.542 5.10107L20.3989 0.958008C20.0942 0.652344 19.6943 0.5 19.2944 0.5C18.8945 0.5 18.4946 0.652344 18.1895 0.958008L0.458008 18.6895C-0.152344 19.2998 -0.152344 20.2891 0.458008 20.8989L4.60107 25.042C4.90625 25.3472 5.30615 25.4995 5.70557 25.4995C6.10547 25.4995 6.50537 25.3472 6.81055 25.042L24.542 7.31006C25.1523 6.70068 25.1523 5.71094 24.542 5.10107ZM17.5513 10.4346L15.0654 7.94873L19.2939 3.72021L21.7798 6.20605L17.5513 10.4346Z" fill="white"/>
</g>
<defs>
<clipPath id="clip0_97_2528">
<rect width="25" height="25" fill="white" transform="translate(0 0.5)"/>
</clipPath>
</defs>
</svg>
