<svg width="26" height="26" viewBox="0 0 26 26" fill="none" xmlns="http://www.w3.org/2000/svg">
<g clip-path="url(#clip0_132_5923)">
<path d="M12.665 15.0403C16.5469 15.0403 19.6963 11.8908 19.6963 8.009C19.6963 4.12717 16.5469 0.977753 12.665 0.977753C8.7832 0.977753 5.63379 4.12717 5.63379 8.009C5.63379 11.8908 8.7832 15.0403 12.665 15.0403ZM18.915 16.6028H16.2246C15.1406 17.1008 13.9346 17.384 12.665 17.384C11.3955 17.384 10.1943 17.1008 9.10547 16.6028H6.41504C2.96289 16.6028 0.165039 19.4006 0.165039 22.8528V23.634C0.165039 24.9279 1.21484 25.9778 2.50879 25.9778H22.8213C24.1152 25.9778 25.165 24.9279 25.165 23.634V22.8528C25.165 19.4006 22.3672 16.6028 18.915 16.6028Z" fill="white"/>
</g>
<defs>
<clipPath id="clip0_132_5923">
<rect width="25" height="25" fill="white" transform="translate(0.165039 0.977753)"/>
</clipPath>
</defs>
</svg>
